<mxfile host="Electron" modified="2024-05-06T13:12:21.856Z" agent="Mozilla/5.0 (Macintosh; Intel Mac OS X 10_15_7) AppleWebKit/537.36 (KHTML, like Gecko) draw.io/24.2.5 Chrome/120.0.6099.109 Electron/28.1.0 Safari/537.36" etag="LNgwqdZfqEWWFiVcLBP6" version="24.2.5" type="device">
  <diagram name="第 1 页" id="N6sGo7M1gCwZHb4O69jW">
    <mxGraphModel dx="1114" dy="1214" grid="1" gridSize="10" guides="1" tooltips="1" connect="1" arrows="1" fold="1" page="1" pageScale="1" pageWidth="1169" pageHeight="827" background="#1e1e1e" math="0" shadow="0">
      <root>
        <mxCell id="0" />
        <mxCell id="1" parent="0" />
        <mxCell id="p7JTaZ_M01FACsDvCaIO-1" value="反赊账录器" style="rounded=1;whiteSpace=wrap;html=1;fontSize=24;fontStyle=1;fillColor=#8183FF;fontColor=#ffffff;strokeColor=#8183FF;sketch=1;curveFitting=1;jiggle=2;movable=1;resizable=1;rotatable=1;deletable=1;editable=1;locked=0;connectable=1;fontFamily=HanziPenSC-W3;textShadow=0;" parent="1" vertex="1">
          <mxGeometry x="430" y="60" width="190" height="60" as="geometry" />
        </mxCell>
        <mxCell id="p7JTaZ_M01FACsDvCaIO-48" value="本月" style="swimlane;fontStyle=1;childLayout=stackLayout;horizontal=1;startSize=40;horizontalStack=0;resizeParent=1;resizeParentMax=0;resizeLast=0;collapsible=1;marginBottom=0;whiteSpace=wrap;html=1;fillColor=#8183FF;fontColor=#ffffff;strokeColor=#8183FF;fontSize=20;swimlaneLine=1;rounded=1;swimlaneFillColor=#292929;glass=0;shadow=0;sketch=1;curveFitting=1;jiggle=2;movable=1;resizable=1;rotatable=1;deletable=1;editable=1;locked=0;connectable=1;fontFamily=HanziPenSC-W3;" parent="1" vertex="1">
          <mxGeometry x="90" y="190" width="180" height="160" as="geometry" />
        </mxCell>
        <mxCell id="p7JTaZ_M01FACsDvCaIO-49" value="&lt;span style=&quot;font-size: 17px; text-align: center;&quot;&gt;设置/查看月预算&lt;/span&gt;" style="text;strokeColor=none;fillColor=none;align=left;verticalAlign=middle;spacingLeft=4;spacingRight=4;overflow=hidden;points=[[0,0.5],[1,0.5]];portConstraint=eastwest;rotatable=0;whiteSpace=wrap;html=1;fontSize=17;fontFamily=HanziPenSC-W3;" parent="p7JTaZ_M01FACsDvCaIO-48" vertex="1">
          <mxGeometry y="40" width="180" height="30" as="geometry" />
        </mxCell>
        <mxCell id="p7JTaZ_M01FACsDvCaIO-52" value="&lt;span style=&quot;font-size: 17px; text-align: center;&quot;&gt;当月收支列表&lt;/span&gt;" style="text;strokeColor=none;fillColor=none;align=left;verticalAlign=middle;spacingLeft=4;spacingRight=4;overflow=hidden;points=[[0,0.5],[1,0.5]];portConstraint=eastwest;rotatable=0;whiteSpace=wrap;html=1;fontSize=17;fontFamily=HanziPenSC-W3;" parent="p7JTaZ_M01FACsDvCaIO-48" vertex="1">
          <mxGeometry y="70" width="180" height="30" as="geometry" />
        </mxCell>
        <mxCell id="p7JTaZ_M01FACsDvCaIO-50" value="&lt;span style=&quot;font-size: 17px; text-align: center;&quot;&gt;添加/编辑/删除收支&lt;/span&gt;" style="text;strokeColor=none;fillColor=none;align=left;verticalAlign=middle;spacingLeft=4;spacingRight=4;overflow=hidden;points=[[0,0.5],[1,0.5]];portConstraint=eastwest;rotatable=0;whiteSpace=wrap;html=1;fontSize=17;fontFamily=HanziPenSC-W3;" parent="p7JTaZ_M01FACsDvCaIO-48" vertex="1">
          <mxGeometry y="100" width="180" height="30" as="geometry" />
        </mxCell>
        <mxCell id="p7JTaZ_M01FACsDvCaIO-51" value="&lt;span style=&quot;font-size: 17px; text-align: center;&quot;&gt;标签管理&lt;/span&gt;" style="text;strokeColor=none;fillColor=none;align=left;verticalAlign=middle;spacingLeft=4;spacingRight=4;overflow=hidden;points=[[0,0.5],[1,0.5]];portConstraint=eastwest;rotatable=0;whiteSpace=wrap;html=1;fontSize=17;fontFamily=HanziPenSC-W3;" parent="p7JTaZ_M01FACsDvCaIO-48" vertex="1">
          <mxGeometry y="130" width="180" height="30" as="geometry" />
        </mxCell>
        <mxCell id="p7JTaZ_M01FACsDvCaIO-53" value="&lt;span style=&quot;color: rgb(240, 240, 240); font-size: 20px;&quot;&gt;分期详情&lt;/span&gt;" style="swimlane;fontStyle=1;childLayout=stackLayout;horizontal=1;startSize=40;horizontalStack=0;resizeParent=1;resizeParentMax=0;resizeLast=0;collapsible=1;marginBottom=0;whiteSpace=wrap;html=1;fillColor=#8183FF;fontColor=#ffffff;strokeColor=#8183FF;fontSize=20;swimlaneLine=1;rounded=1;swimlaneFillColor=#292929;glass=0;shadow=0;sketch=1;curveFitting=1;jiggle=2;movable=1;resizable=1;rotatable=1;deletable=1;editable=1;locked=0;connectable=1;fontFamily=HanziPenSC-W3;" parent="1" vertex="1">
          <mxGeometry x="340" y="390" width="150" height="130" as="geometry" />
        </mxCell>
        <mxCell id="p7JTaZ_M01FACsDvCaIO-54" value="&lt;span style=&quot;font-size: 17px; text-align: center;&quot;&gt;分期月供列表&lt;/span&gt;" style="text;strokeColor=none;fillColor=none;align=left;verticalAlign=middle;spacingLeft=4;spacingRight=4;overflow=hidden;points=[[0,0.5],[1,0.5]];portConstraint=eastwest;rotatable=0;whiteSpace=wrap;html=1;fontSize=17;fontFamily=HanziPenSC-W3;" parent="p7JTaZ_M01FACsDvCaIO-53" vertex="1">
          <mxGeometry y="40" width="150" height="30" as="geometry" />
        </mxCell>
        <mxCell id="p7JTaZ_M01FACsDvCaIO-55" value="&lt;span style=&quot;font-size: 17px; text-align: center;&quot;&gt;按月提前还款&lt;/span&gt;" style="text;strokeColor=none;fillColor=none;align=left;verticalAlign=middle;spacingLeft=4;spacingRight=4;overflow=hidden;points=[[0,0.5],[1,0.5]];portConstraint=eastwest;rotatable=0;whiteSpace=wrap;html=1;fontSize=17;fontFamily=HanziPenSC-W3;" parent="p7JTaZ_M01FACsDvCaIO-53" vertex="1">
          <mxGeometry y="70" width="150" height="30" as="geometry" />
        </mxCell>
        <mxCell id="p7JTaZ_M01FACsDvCaIO-56" value="&lt;span style=&quot;font-size: 17px; text-align: center;&quot;&gt;复制月还款信息&lt;/span&gt;" style="text;strokeColor=none;fillColor=none;align=left;verticalAlign=middle;spacingLeft=4;spacingRight=4;overflow=hidden;points=[[0,0.5],[1,0.5]];portConstraint=eastwest;rotatable=0;whiteSpace=wrap;html=1;fontSize=17;fontFamily=HanziPenSC-W3;" parent="p7JTaZ_M01FACsDvCaIO-53" vertex="1">
          <mxGeometry y="100" width="150" height="30" as="geometry" />
        </mxCell>
        <mxCell id="p7JTaZ_M01FACsDvCaIO-58" value="&lt;span style=&quot;color: rgb(240, 240, 240); font-size: 20px;&quot;&gt;分期&lt;/span&gt;" style="swimlane;fontStyle=1;childLayout=stackLayout;horizontal=1;startSize=40;horizontalStack=0;resizeParent=1;resizeParentMax=0;resizeLast=0;collapsible=1;marginBottom=0;whiteSpace=wrap;html=1;fillColor=#8183FF;fontColor=#ffffff;strokeColor=#8183FF;fontSize=20;swimlaneLine=1;rounded=1;swimlaneFillColor=#292929;glass=0;shadow=0;sketch=1;curveFitting=1;jiggle=2;movable=1;resizable=1;rotatable=1;deletable=1;editable=1;locked=0;connectable=1;fontFamily=HanziPenSC-W3;" parent="1" vertex="1">
          <mxGeometry x="320" y="191" width="230" height="160" as="geometry" />
        </mxCell>
        <mxCell id="p7JTaZ_M01FACsDvCaIO-59" value="&lt;span style=&quot;font-size: 17px; text-align: center;&quot;&gt;分期和贷款列表&lt;/span&gt;" style="text;strokeColor=none;fillColor=none;align=left;verticalAlign=middle;spacingLeft=4;spacingRight=4;overflow=hidden;points=[[0,0.5],[1,0.5]];portConstraint=eastwest;rotatable=1;whiteSpace=wrap;html=1;fontSize=17;movable=1;resizable=1;deletable=1;editable=1;locked=0;connectable=1;fontFamily=HanziPenSC-W3;" parent="p7JTaZ_M01FACsDvCaIO-58" vertex="1">
          <mxGeometry y="40" width="230" height="30" as="geometry" />
        </mxCell>
        <mxCell id="p7JTaZ_M01FACsDvCaIO-60" value="&lt;span style=&quot;font-size: 17px; text-align: center;&quot;&gt;复制/导入分期和贷款数据&lt;/span&gt;" style="text;strokeColor=none;fillColor=none;align=left;verticalAlign=middle;spacingLeft=4;spacingRight=4;overflow=hidden;points=[[0,0.5],[1,0.5]];portConstraint=eastwest;rotatable=0;whiteSpace=wrap;html=1;fontSize=17;fontFamily=HanziPenSC-W3;" parent="p7JTaZ_M01FACsDvCaIO-58" vertex="1">
          <mxGeometry y="70" width="230" height="30" as="geometry" />
        </mxCell>
        <mxCell id="p7JTaZ_M01FACsDvCaIO-61" value="&lt;span style=&quot;font-size: 17px; text-align: center;&quot;&gt;添加/编辑/删除分期和贷款&lt;/span&gt;" style="text;strokeColor=none;fillColor=none;align=left;verticalAlign=middle;spacingLeft=4;spacingRight=4;overflow=hidden;points=[[0,0.5],[1,0.5]];portConstraint=eastwest;rotatable=0;whiteSpace=wrap;html=1;fontSize=17;fontFamily=HanziPenSC-W3;" parent="p7JTaZ_M01FACsDvCaIO-58" vertex="1">
          <mxGeometry y="100" width="230" height="30" as="geometry" />
        </mxCell>
        <mxCell id="zDz8M1W4H5srshmjkIJp-8" value="&lt;div style=&quot;text-align: center;&quot;&gt;已完成超过90天自动归档&lt;/div&gt;" style="text;strokeColor=none;fillColor=none;align=left;verticalAlign=middle;spacingLeft=4;spacingRight=4;overflow=hidden;points=[[0,0.5],[1,0.5]];portConstraint=eastwest;rotatable=0;whiteSpace=wrap;html=1;fontSize=17;fontFamily=HanziPenSC-W3;" parent="p7JTaZ_M01FACsDvCaIO-58" vertex="1">
          <mxGeometry y="130" width="230" height="30" as="geometry" />
        </mxCell>
        <mxCell id="p7JTaZ_M01FACsDvCaIO-62" value="&lt;span style=&quot;color: rgb(240, 240, 240); font-size: 20px;&quot;&gt;历史&lt;/span&gt;" style="swimlane;fontStyle=1;childLayout=stackLayout;horizontal=1;startSize=40;horizontalStack=0;resizeParent=1;resizeParentMax=0;resizeLast=0;collapsible=1;marginBottom=0;whiteSpace=wrap;html=1;fillColor=#8183FF;fontColor=#ffffff;strokeColor=#8183FF;fontSize=20;swimlaneLine=1;rounded=1;swimlaneFillColor=#292929;glass=0;shadow=0;sketch=1;curveFitting=1;jiggle=2;movable=1;resizable=1;rotatable=1;deletable=1;editable=1;locked=0;connectable=1;fontFamily=HanziPenSC-W3;" parent="1" vertex="1">
          <mxGeometry x="584.5" y="187" width="175.5" height="100" as="geometry" />
        </mxCell>
        <mxCell id="p7JTaZ_M01FACsDvCaIO-63" value="&lt;span style=&quot;text-align: center;&quot;&gt;月收支列表&lt;/span&gt;" style="text;strokeColor=none;fillColor=none;align=left;verticalAlign=middle;spacingLeft=4;spacingRight=4;overflow=hidden;points=[[0,0.5],[1,0.5]];portConstraint=eastwest;rotatable=0;whiteSpace=wrap;html=1;fontSize=17;fontFamily=HanziPenSC-W3;" parent="p7JTaZ_M01FACsDvCaIO-62" vertex="1">
          <mxGeometry y="40" width="175.5" height="30" as="geometry" />
        </mxCell>
        <mxCell id="p7JTaZ_M01FACsDvCaIO-64" value="&lt;span style=&quot;text-align: center;&quot;&gt;复制/导入收支数据&lt;/span&gt;" style="text;strokeColor=none;fillColor=none;align=left;verticalAlign=middle;spacingLeft=4;spacingRight=4;overflow=hidden;points=[[0,0.5],[1,0.5]];portConstraint=eastwest;rotatable=0;whiteSpace=wrap;html=1;fontSize=17;fontFamily=HanziPenSC-W3;" parent="p7JTaZ_M01FACsDvCaIO-62" vertex="1">
          <mxGeometry y="70" width="175.5" height="30" as="geometry" />
        </mxCell>
        <mxCell id="p7JTaZ_M01FACsDvCaIO-66" value="&lt;span style=&quot;color: rgb(240, 240, 240); font-size: 20px;&quot;&gt;同步&lt;/span&gt;" style="swimlane;fontStyle=1;childLayout=stackLayout;horizontal=1;startSize=40;horizontalStack=0;resizeParent=1;resizeParentMax=0;resizeLast=0;collapsible=1;marginBottom=0;whiteSpace=wrap;html=1;fillColor=#8183FF;fontColor=#ffffff;strokeColor=#8183FF;fontSize=20;swimlaneLine=1;rounded=1;swimlaneFillColor=#292929;glass=0;shadow=0;sketch=1;curveFitting=1;jiggle=2;movable=1;resizable=1;rotatable=1;deletable=1;editable=1;locked=0;connectable=1;fontFamily=HanziPenSC-W3;" parent="1" vertex="1">
          <mxGeometry x="790" y="194" width="210" height="190" as="geometry" />
        </mxCell>
        <mxCell id="p7JTaZ_M01FACsDvCaIO-67" value="&lt;span style=&quot;text-align: center;&quot;&gt;启用/暂停数据同步&lt;/span&gt;" style="text;strokeColor=none;fillColor=none;align=left;verticalAlign=middle;spacingLeft=4;spacingRight=4;overflow=hidden;points=[[0,0.5],[1,0.5]];portConstraint=eastwest;rotatable=0;whiteSpace=wrap;html=1;fontSize=17;fontFamily=HanziPenSC-W3;" parent="p7JTaZ_M01FACsDvCaIO-66" vertex="1">
          <mxGeometry y="40" width="210" height="30" as="geometry" />
        </mxCell>
        <mxCell id="p7JTaZ_M01FACsDvCaIO-68" value="&lt;span style=&quot;text-align: center;&quot;&gt;生成/导入/复制账号信息&lt;/span&gt;" style="text;strokeColor=none;fillColor=none;align=left;verticalAlign=middle;spacingLeft=4;spacingRight=4;overflow=hidden;points=[[0,0.5],[1,0.5]];portConstraint=eastwest;rotatable=0;whiteSpace=wrap;html=1;fontSize=17;fontFamily=HanziPenSC-W3;" parent="p7JTaZ_M01FACsDvCaIO-66" vertex="1">
          <mxGeometry y="70" width="210" height="30" as="geometry" />
        </mxCell>
        <mxCell id="p7JTaZ_M01FACsDvCaIO-69" value="&lt;span style=&quot;text-align: center;&quot;&gt;切换账号&lt;/span&gt;" style="text;strokeColor=none;fillColor=none;align=left;verticalAlign=middle;spacingLeft=4;spacingRight=4;overflow=hidden;points=[[0,0.5],[1,0.5]];portConstraint=eastwest;rotatable=0;whiteSpace=wrap;html=1;fontSize=17;fontFamily=HanziPenSC-W3;" parent="p7JTaZ_M01FACsDvCaIO-66" vertex="1">
          <mxGeometry y="100" width="210" height="30" as="geometry" />
        </mxCell>
        <mxCell id="p7JTaZ_M01FACsDvCaIO-70" value="&lt;span style=&quot;text-align: center;&quot;&gt;注销账号&lt;/span&gt;" style="text;strokeColor=none;fillColor=none;align=left;verticalAlign=middle;spacingLeft=4;spacingRight=4;overflow=hidden;points=[[0,0.5],[1,0.5]];portConstraint=eastwest;rotatable=0;whiteSpace=wrap;html=1;fontSize=17;fontFamily=HanziPenSC-W3;" parent="p7JTaZ_M01FACsDvCaIO-66" vertex="1">
          <mxGeometry y="130" width="210" height="30" as="geometry" />
        </mxCell>
        <mxCell id="p7JTaZ_M01FACsDvCaIO-71" value="&lt;span style=&quot;text-align: center;&quot;&gt;同步状态提示&lt;/span&gt;" style="text;strokeColor=none;fillColor=none;align=left;verticalAlign=middle;spacingLeft=4;spacingRight=4;overflow=hidden;points=[[0,0.5],[1,0.5]];portConstraint=eastwest;rotatable=0;whiteSpace=wrap;html=1;fontSize=17;fontFamily=HanziPenSC-W3;" parent="p7JTaZ_M01FACsDvCaIO-66" vertex="1">
          <mxGeometry y="160" width="210" height="30" as="geometry" />
        </mxCell>
        <mxCell id="p7JTaZ_M01FACsDvCaIO-72" value="&lt;span style=&quot;color: rgb(240, 240, 240); font-size: 20px;&quot;&gt;键盘计算器&lt;/span&gt;" style="swimlane;fontStyle=1;childLayout=stackLayout;horizontal=1;startSize=40;horizontalStack=0;resizeParent=1;resizeParentMax=0;resizeLast=0;collapsible=1;marginBottom=0;whiteSpace=wrap;html=1;fillColor=#8183FF;fontColor=#ffffff;strokeColor=#8183FF;fontSize=20;swimlaneLine=1;rounded=1;swimlaneFillColor=#292929;glass=0;shadow=0;sketch=1;curveFitting=1;jiggle=2;fontFamily=HanziPenSC-W3;" parent="1" vertex="1">
          <mxGeometry x="105" y="383" width="145" height="130" as="geometry" />
        </mxCell>
        <mxCell id="p7JTaZ_M01FACsDvCaIO-73" value="&lt;span style=&quot;text-align: center;&quot;&gt;检测物理键盘&lt;/span&gt;" style="text;strokeColor=none;fillColor=none;align=left;verticalAlign=middle;spacingLeft=4;spacingRight=4;overflow=hidden;points=[[0,0.5],[1,0.5]];portConstraint=eastwest;rotatable=0;whiteSpace=wrap;html=1;fontSize=17;fontFamily=HanziPenSC-W3;" parent="p7JTaZ_M01FACsDvCaIO-72" vertex="1">
          <mxGeometry y="40" width="145" height="30" as="geometry" />
        </mxCell>
        <mxCell id="p7JTaZ_M01FACsDvCaIO-74" value="&lt;span style=&quot;text-align: center;&quot;&gt;四则运算和括号&lt;/span&gt;" style="text;strokeColor=none;fillColor=none;align=left;verticalAlign=middle;spacingLeft=4;spacingRight=4;overflow=hidden;points=[[0,0.5],[1,0.5]];portConstraint=eastwest;rotatable=0;whiteSpace=wrap;html=1;fontSize=17;fontFamily=HanziPenSC-W3;" parent="p7JTaZ_M01FACsDvCaIO-72" vertex="1">
          <mxGeometry y="70" width="145" height="30" as="geometry" />
        </mxCell>
        <mxCell id="p7JTaZ_M01FACsDvCaIO-75" value="&lt;span style=&quot;text-align: center;&quot;&gt;快捷键（万）&lt;/span&gt;" style="text;strokeColor=none;fillColor=none;align=left;verticalAlign=middle;spacingLeft=4;spacingRight=4;overflow=hidden;points=[[0,0.5],[1,0.5]];portConstraint=eastwest;rotatable=0;whiteSpace=wrap;html=1;fontSize=17;fontFamily=HanziPenSC-W3;" parent="p7JTaZ_M01FACsDvCaIO-72" vertex="1">
          <mxGeometry y="100" width="145" height="30" as="geometry" />
        </mxCell>
        <mxCell id="p7JTaZ_M01FACsDvCaIO-80" value="" style="endArrow=none;html=1;rounded=0;entryX=0.331;entryY=1.012;entryDx=0;entryDy=0;curved=1;sketch=1;curveFitting=1;jiggle=2;strokeColor=#8183FF;jumpStyle=none;entryPerimeter=0;" parent="1" target="p7JTaZ_M01FACsDvCaIO-1" edge="1">
          <mxGeometry width="50" height="50" relative="1" as="geometry">
            <mxPoint x="170" y="190" as="sourcePoint" />
            <mxPoint x="550" y="100" as="targetPoint" />
            <Array as="points">
              <mxPoint x="270" y="160" />
              <mxPoint x="410" y="150" />
            </Array>
          </mxGeometry>
        </mxCell>
        <mxCell id="p7JTaZ_M01FACsDvCaIO-81" value="" style="endArrow=none;html=1;rounded=0;exitX=0.5;exitY=0;exitDx=0;exitDy=0;strokeColor=#8183FF;curved=1;jumpStyle=none;sketch=1;curveFitting=1;jiggle=2;entryX=0.435;entryY=1.043;entryDx=0;entryDy=0;entryPerimeter=0;" parent="1" source="p7JTaZ_M01FACsDvCaIO-58" target="p7JTaZ_M01FACsDvCaIO-1" edge="1">
          <mxGeometry width="50" height="50" relative="1" as="geometry">
            <mxPoint x="450" y="350" as="sourcePoint" />
            <mxPoint x="560" y="90" as="targetPoint" />
            <Array as="points">
              <mxPoint x="500" y="150" />
            </Array>
          </mxGeometry>
        </mxCell>
        <mxCell id="p7JTaZ_M01FACsDvCaIO-82" value="" style="endArrow=none;html=1;rounded=0;exitX=0.5;exitY=0;exitDx=0;exitDy=0;strokeColor=#8183FF;curved=1;jumpStyle=none;sketch=1;curveFitting=1;jiggle=2;entryX=0.5;entryY=1;entryDx=0;entryDy=0;" parent="1" source="p7JTaZ_M01FACsDvCaIO-62" target="p7JTaZ_M01FACsDvCaIO-1" edge="1">
          <mxGeometry width="50" height="50" relative="1" as="geometry">
            <mxPoint x="590" y="190" as="sourcePoint" />
            <mxPoint x="560" y="90" as="targetPoint" />
            <Array as="points">
              <mxPoint x="570" y="160" />
            </Array>
          </mxGeometry>
        </mxCell>
        <mxCell id="p7JTaZ_M01FACsDvCaIO-83" value="" style="endArrow=none;html=1;rounded=0;entryX=0.545;entryY=0.002;entryDx=0;entryDy=0;entryPerimeter=0;strokeColor=#8183FF;curved=1;jumpStyle=none;sketch=1;curveFitting=1;jiggle=2;exitX=0.702;exitY=1.037;exitDx=0;exitDy=0;exitPerimeter=0;" parent="1" source="p7JTaZ_M01FACsDvCaIO-1" target="p7JTaZ_M01FACsDvCaIO-66" edge="1">
          <mxGeometry width="50" height="50" relative="1" as="geometry">
            <mxPoint x="560" y="90" as="sourcePoint" />
            <mxPoint x="720" y="120" as="targetPoint" />
            <Array as="points">
              <mxPoint x="660" y="150" />
              <mxPoint x="800" y="160" />
            </Array>
          </mxGeometry>
        </mxCell>
        <mxCell id="p7JTaZ_M01FACsDvCaIO-84" value="" style="endArrow=none;html=1;rounded=0;curved=1;strokeColor=#8183FF;sketch=1;curveFitting=1;jiggle=2;entryX=0.486;entryY=1.067;entryDx=0;entryDy=0;entryPerimeter=0;" parent="1" source="p7JTaZ_M01FACsDvCaIO-53" target="zDz8M1W4H5srshmjkIJp-8" edge="1">
          <mxGeometry width="50" height="50" relative="1" as="geometry">
            <mxPoint x="600" y="450" as="sourcePoint" />
            <mxPoint x="500" y="400" as="targetPoint" />
          </mxGeometry>
        </mxCell>
      </root>
    </mxGraphModel>
  </diagram>
</mxfile>
